<?xml version="1.0" encoding="UTF-8" standalone="no"?>
<svg
   width="148"
   height="25"
   version="1.1"
   id="svg12"
   sodipodi:docname="logo-bookmark.svg"
   inkscape:version="1.1 (c68e22c387, 2021-05-23)"
   xmlns:inkscape="http://www.inkscape.org/namespaces/inkscape"
   xmlns:sodipodi="http://sodipodi.sourceforge.net/DTD/sodipodi-0.dtd"
   xmlns="http://www.w3.org/2000/svg"
   xmlns:svg="http://www.w3.org/2000/svg">
  <defs
     id="defs16" />
  <sodipodi:namedview
     id="namedview14"
     pagecolor="#ffffff"
     bordercolor="#666666"
     borderopacity="1.0"
     inkscape:pageshadow="2"
     inkscape:pageopacity="0.0"
     inkscape:pagecheckerboard="0"
     showgrid="false"
     inkscape:lockguides="true"
     inkscape:zoom="7.1486486"
     inkscape:cx="73.930057"
     inkscape:cy="12.519849"
     inkscape:window-width="1366"
     inkscape:window-height="705"
     inkscape:window-x="-8"
     inkscape:window-y="-8"
     inkscape:window-maximized="1"
     inkscape:current-layer="svg12" />
  <g
     id="g4610">
    <path
       d="m 37.055248,6.299 h 5.234805 c 0.747114,0 1.436142,0.155 2.065079,0.466 0.62994,0.311 1.124677,0.735 1.486216,1.27 0.361539,0.535 0.54281,1.12 0.54281,1.754 0,0.672 -0.165247,1.254 -0.49574,1.746 -0.330492,0.491 -0.763137,0.868 -1.298936,1.129 v 0.15 c 0.698041,0.248 1.251866,0.643 1.66348,1.185 0.410612,0.541 0.61692,1.191 0.61692,1.95 0,0.735 -0.196293,1.385 -0.588878,1.951 a 3.8226995,3.817 0 0 1 -1.58937,1.307 c -0.665993,0.305 -1.405095,0.457 -2.215303,0.457 h -5.421083 z m 5.047526,5.45 c 0.548818,0 0.987472,-0.152 1.317965,-0.457 0.330493,-0.305 0.495739,-0.688 0.495739,-1.148 0,-0.448 -0.159237,-0.824 -0.47671,-1.13 C 43.121293,8.71 42.700666,8.557 42.177886,8.557 h -2.598875 v 3.192 z m 0.280418,5.619 c 0.610911,0 1.087622,-0.159 1.430133,-0.476 0.34251,-0.317 0.513766,-0.731 0.513766,-1.241 0,-0.51 -0.17426,-0.927 -0.52278,-1.251 -0.349521,-0.324 -0.848265,-0.485 -1.496231,-0.485 h -2.729069 v 3.453 z m 12.946303,2.595 c -1.308952,0 -2.495721,-0.308 -3.56131,-0.924 a 6.7210209,6.711 0 0 1 -2.514749,-2.53 c -0.610911,-1.07 -0.916367,-2.246 -0.916367,-3.528 0,-1.281 0.305456,-2.457 0.916367,-3.528 A 6.7210209,6.711 0 0 1 51.767184,6.924 C 52.834775,6.308 54.020543,6 55.330496,6 c 1.30795,0 2.495721,0.308 3.56131,0.924 a 6.7210209,6.711 0 0 1 2.513748,2.53 c 0.610911,1.07 0.916366,2.246 0.916366,3.527 0,1.282 -0.305455,2.458 -0.916366,3.528 a 6.7210209,6.711 0 0 1 -2.513748,2.53 c -1.065589,0.616 -2.25336,0.924 -3.56131,0.924 z m 0,-2.39 a 4.5267493,4.52 0 0 0 2.261371,-0.578 4.1832371,4.177 0 0 0 1.617412,-1.624 c 0.392585,-0.697 0.588878,-1.494 0.588878,-2.39 0,-0.896 -0.196293,-1.692 -0.588878,-2.389 a 4.1832371,4.177 0 0 0 -1.617412,-1.624 4.5267493,4.52 0 0 0 -2.261371,-0.579 4.4766746,4.47 0 0 0 -2.25336,0.579 4.201264,4.195 0 0 0 -1.607396,1.624 c -0.392586,0.697 -0.588878,1.493 -0.588878,2.39 0,0.895 0.196292,1.692 0.588878,2.389 a 4.201264,4.195 0 0 0 1.607396,1.624 4.4766746,4.47 0 0 0 2.25336,0.578 z m 15.375925,2.39 c -1.308952,0 -2.495721,-0.308 -3.56131,-0.924 a 6.7210209,6.711 0 0 1 -2.513748,-2.53 c -0.610911,-1.07 -0.916366,-2.246 -0.916366,-3.528 0,-1.281 0.305455,-2.457 0.915365,-3.528 A 6.7210209,6.711 0 0 1 67.14411,6.924 C 68.209699,6.308 69.39747,6 70.70542,6 c 1.308952,0 2.495721,0.308 3.56131,0.924 a 6.7210209,6.711 0 0 1 2.513748,2.53 c 0.610911,1.07 0.916366,2.246 0.916366,3.527 0,1.282 -0.305455,2.458 -0.915365,3.528 a 6.7210209,6.711 0 0 1 -2.514749,2.53 c -1.065589,0.616 -2.25336,0.924 -3.56131,0.924 z m 0,-2.39 a 4.5267493,4.52 0 0 0 2.262373,-0.578 4.1832371,4.177 0 0 0 1.61641,-1.624 c 0.392585,-0.697 0.588878,-1.494 0.588878,-2.39 0,-0.896 -0.196293,-1.692 -0.588878,-2.389 A 4.1832371,4.177 0 0 0 72.967793,8.968 4.5267493,4.52 0 0 0 70.70542,8.389 4.4766746,4.47 0 0 0 68.45206,8.968 4.201264,4.195 0 0 0 66.844664,10.592 c -0.392586,0.697 -0.588878,1.493 -0.588878,2.39 0,0.895 0.196292,1.692 0.588878,2.389 a 4.201264,4.195 0 0 0 1.608398,1.624 4.4766746,4.47 0 0 0 2.252358,0.578 z M 79.949202,6.3 h 2.523763 v 5.73 h 0.150224 L 87.520491,6.3 h 3.047544 v 0.149 l -4.840217,5.524 5.345971,7.542 v 0.149 H 87.98919 l -3.999964,-5.693 -1.514258,1.773 v 3.92 H 79.951205 V 6.299 Z M 93.919031,6 h 3.25285 l 3.551299,9.39 h 0.15022 L 104.42369,6 h 3.27188 v 13.365 h -2.50473 v -6.589 l 0.15022,-2.221 h -0.15022 l -3.40308,8.81 h -1.962924 l -3.421101,-8.81 h -0.149222 l 0.150224,2.221 v 6.59 H 93.918029 V 6 Z m 20.831059,0 h 2.89832 l 5.0285,13.365 h -2.78515 l -1.12168,-3.192 h -5.12263 l -1.12168,3.192 h -2.78515 z m 3.19777,7.859 -1.17776,-3.36 -0.48672,-1.606 h -0.14923 l -0.48572,1.606 -1.19679,3.36 h 3.49522 z M 124.73898,6 h 4.87928 c 0.8723,0 1.64846,0.18 2.32747,0.541 0.67901,0.361 1.2058,0.862 1.57935,1.503 0.37456,0.64 0.56084,1.366 0.56084,2.175 0,0.858 -0.2704,1.62 -0.81321,2.286 a 4.6238941,4.617 0 0 1 -2.04706,1.447 l -0.018,0.13 3.58935,5.134 v 0.15 h -2.89832 l -3.45816,-5.022 h -1.17775 v 5.021 H 124.739 Z m 4.86025,6.03 c 0.57385,0 1.04155,-0.175 1.40209,-0.523 0.36154,-0.349 0.54281,-0.79 0.54281,-1.326 0,-0.51 -0.17226,-0.945 -0.51477,-1.306 -0.34251,-0.361 -0.8072,-0.542 -1.39207,-0.542 h -2.37454 v 3.696 h 2.33648 z M 136.84002,6 h 2.52377 v 5.73 h 0.15022 L 144.41131,6 h 3.04755 v 0.15 l -4.84222,5.525 5.34797,7.541 v 0.15 h -3.0846 l -4.00196,-5.694 -1.51426,1.773 v 3.92 h -2.52377 z"
       fill="#242a45"
       fill-rule="nonzero"
       id="path2"
       style="stroke-width:1.00075;fill:#ffffff" />
    <g
       id="g8"
       transform="scale(1.0014932,1)"
       style="fill:none;fill-rule:evenodd">
      <circle
         fill="#5267df"
         cx="12.5"
         cy="12.5"
         r="12.5"
         id="circle4" />
      <path
         d="M 9,9 V 19 L 12.54,15.56 16.078,19 V 9 a 2,2 0 0 0 -2,-2 H 11 A 2,2 0 0 0 9,9 Z"
         fill="#ffffff"
         id="path6" />
    </g>
  </g>
</svg>
